<svg width="100" height="100" viewBox="0 0 100 100" fill="none" xmlns="http://www.w3.org/2000/svg">
<path d="M95.7 19.7C96.5 19.7 96.9 19.5 96.9 19C96.9 18.8 96.7 18.5 96.2 18.1C91.9 14.5 90.5 13.4 86.1 9.9C83.3 13.1 82.4 14.1 79.7 17.5H62.6V9.2C66.2 8 66.8 7.7 66.8 6.9C66.8 5.8 65.3 5.4 60 4.9C58.6 4.8 56.5 4.59999 53.9 4.3C54.2 8 54.3 9.6 54.3 12.9V17.5H38C34.8 17.5 33 17.3 30.1 16.6L31 20.5C33.7 19.8 34.6 19.7 38 19.7H50C48.5 26.3 47 31.9 45.3 36.5C40.6 36.6 40 36.6 38.5 36.6C37.3 36.6 37.2 36.6 31.2 36.5C33.1 46.6 33.3 47.3 34.3 47.3C34.9 47.3 35.3 46.7 35.6 45.3C35.6 45 35.7 44.7 35.9 44.2C65.9 39.7 65.9 39.7 78.7 37.1C80.4 39.3 81.3 40.8 83.4 44.8C84.3 46.4 84.9 47 85.7 47C87.5 47 89.6 43.3 89.6 40C89.6 37.1 88.8 35.6 86.4 33.8C82.2 30.6 76.5 27.5 67.8 23.7L67 24.7C71.3 28.4 72.9 30 76.9 34.8C63.4 35.8 63.4 35.8 48.5 36.4C54.1 29.2 55.6 27 60 19.7H95.7ZM8.7 7.1C14.3 11.6 17.8 15.9 21.3 22.4C22.2 24.2 23 25 23.8 25C25.6 25 27.7 21.4 27.7 18.3C27.7 16.1 26.9 14.6 24.9 13.3C21.7 11 17.2 8.9 9.6 6.09999L8.7 7.1ZM3 29.9C6.4 32.6 7.9 34.1 9.8 36.5C11.3 38.5 13.7 42 14.5 43.7C15.6 45.8 16.2 46.4 17 46.4C18.9 46.4 21 42.7 21 39.5C21 37.1 19.9 35.8 15.8 33.5C12.7 31.8 10.3 30.8 3.9 28.7L3 29.9ZM22 96.2C27.5 93.6 30.2 92 33.7 89C40.3 83.3 44.3 76.4 45.5 68.7C46.2 63.8 46.4 61.7 46.8 50.9C49.8 49.7 50.1 49.5 50.1 48.8C50.1 47.8 48.6 47.5 38.6 46.4C38.9 49.9 39 51.9 39 54.7C39 64.5 38 71.7 35.7 77.8C33.3 84.3 29.8 88.5 21.4 95L22 96.2ZM62.2 50.8C65.2 49.8 65.8 49.4 65.8 48.7C65.8 47.7 64.3 47.4 54.4 46.4C54.7 50.5 54.8 52.6 54.8 56.8C54.8 72.1 54.8 78 54.5 91.7C54.6 92.7 55.1 93.1 56.3 93.1C56.3 93.1 56.5 93.1 56.6 93.1C56.8 93.1 57.5 93 58.4 93C61.5 92.9 62.3 92.5 62.4 91.1C62.2 75.2 62.2 73.7 62.2 66.2V50.8ZM4.3 66.5C10.5 68.9 12.4 71.1 12.4 75.6C12.4 78.7 11.9 82 10.6 88.7C10.2 90.3 10 91.8 10 92.4C10 94 11 95.1 12.4 95.1C14.2 95.1 17 93.8 18.5 92.2C20 90.7 20.7 88.6 20.7 85.9C20.7 83.8 20.3 81.2 19.7 79.2C18.5 74.9 18.2 73.6 18.2 72C18.2 71.1 18.4 70.4 19.4 67.2L32.8 25.2L31.7 24.6L24.9 40.5C20.3 51 18.5 55.2 15.8 60.9C13.4 65.7 13 66.3 11.6 66.3C10.6 66.3 9.5 66.1 4.7 65L4.3 66.5ZM71.8 75.3C71.8 79.3 71.8 79.3 71.8 86.8C71.8 92.2 73.2 93 82 93C88.5 93 92.2 92.8 94.4 92.3C96.8 91.7 98.1 90.4 98.1 88.5C98.1 87.5 97.6 86.6 96.7 86.2C94.4 85 94.3 84.9 94.3 82.9C94.3 82.9 94.3 82.7 94.3 82.5L95.6 64.9L94.1 64.8C90.7 78.8 89.2 84.1 88.4 85C87.8 85.9 86.7 86.1 82.9 86.1C79.3 86.1 79.2 86 79.2 84.2V51.1C82.2 50.1 83.1 49.6 83.1 48.8C83.1 47.8 80.9 47.3 71.5 46.5C71.8 50.1 71.8 51.1 71.8 56V75.3Z" fill="white"/>
</svg>
