<svg width="100" height="100" viewBox="0 0 100 100" fill="none" xmlns="http://www.w3.org/2000/svg">
<path d="M37.3 43.4V34.7C37.3 32.2 37.3 29.5 37.3 24.8C40.3 24 40.6 23.8 40.6 23C40.6 21.9 38.8 21.4 30.5 20.5C30.7 22.3 30.7 22.3 30.8 29.8V75H25.6V9.79999C28.3 9.1 29.3 8.6 29.3 7.6C29.3 6.4 27.2 5.9 18.4 4.9C18.7 7.7 18.8 10.6 18.8 14.5V75H14V24.8C16.4 24.1 17 23.8 17 23.1C17 22.2 15.8 21.7 11.9 21.1C10.8 21 9.1 20.7 7 20.4C7.3 25.8 7.4 35.4 7.4 56.1C7.4 71.8 7.3 75.7 6.9 85.6C6.9 85.7 6.9 85.9 6.9 86C6.9 86.9 7.4 87.3 8.8 87.3C8.8 87.3 9 87.3 9.1 87.3C9.6 87.3 10 87.2 10.3 87.2C13.3 87.1 13.9 86.8 14 85.4V77.2H30.8V83.4C30.8 84.7 31.2 85.2 32.2 85.2C32.3 85.2 32.4 85.2 32.5 85.2C32.6 85.2 33.1 85.1 33.8 85.1C36.3 84.9 37.4 84.4 37.4 83.4C37.4 83.2 37.4 83.1 37.4 82.9L37.3 45.6H80.5V84.7C80.5 86.1 80.2 86.4 78.9 86.4C72.5 86.4 72.1 86.4 61.4 85.7L61.3 87.2C74 89.3 75.2 90 76.3 95.6C86.1 94 87.9 92.8 88.2 87.4C88.1 75.2 88.1 74.7 88.1 70.8V45.6H97C98 45.6 98.4 45.4 98.4 45C98.4 44.8 98.2 44.5 97.9 44.1C94.6 40.9 93.5 39.9 89.8 36.8C87.4 39.6 86.6 40.5 84.2 43.4H37.3ZM48.3 16.9C45.9 16.9 42.1 16.6 39.6 16.2L40.2 19.6C42.4 19.2 44.5 19.1 48.3 19.1H58.6C57.7 22.2 56.7 24.4 55 26.9C51.1 32.5 46.7 35.9 38.4 39.7L39.2 41.1C43 40 45.3 39.3 47.2 38.5C51.8 36.5 56.1 33.8 59.2 30.7C61.5 28.5 62.8 26.8 64.2 24.1C70.6 27.4 75.4 31.2 80.7 37.3C82.4 39.2 83.3 39.9 84.1 39.9C85.4 39.9 86.6 37.2 86.6 34.5C86.6 33.2 86.3 32.1 85.7 31.2C85 30 83.8 29.2 80.1 27.5C75.8 25.6 74 25 65 22.4C65.6 20.9 65.8 20.5 66.2 19.1H93.7C94.3 19.1 94.8 18.6 94.8 18.2C94.8 18 94.6 17.8 94.4 17.4C90.9 14.2 89.8 13.2 86 10.1C83.6 13 82.9 13.9 80.5 16.9H66.7C67.2 14.7 67.4 13.3 67.8 9.2C71.1 8.2 71.9 7.7 71.9 6.9C71.9 5.99999 70.2 5.4 65.6 4.8C64.4 4.69999 62.4 4.4 59.8 4C59.9 5.7 59.9 6.99999 59.9 7.8C59.9 11.1 59.7 13.9 59.1 16.9H48.3ZM52 74.9H64.4V78.1C64.4 78.2 64.4 78.4 64.4 78.5C64.4 79.5 64.9 80 65.8 80C67.8 80 70.4 79.7 70.8 79.4C71.1 79.1 71.3 78.7 71.3 78.2C71.3 78.2 71.3 78 71.3 77.9C71.3 75.2 71.3 72.9 71.2 71.3L71.1 62.6C71.1 61.9 71.2 60.7 71.2 58.4C73.1 57.6 74 56.8 74 56.1C74 55.7 73.7 55.3 72.9 54.7C70.7 53 70 52.5 67.6 50.9C65.9 52.5 65.5 53 63.9 54.7H53C49.8 52.6 48.8 52 45.2 50.5C45.4 53.8 45.4 55.8 45.4 69C45.4 74.4 45.4 76.1 45.2 81.2C45.2 82.4 45.7 82.8 46.8 82.8C48.1 82.8 50.3 82.5 51.1 82.3C51.7 82.1 52 81.7 52 81.2C52 81.1 52 80.9 52 80.8V74.9ZM52 56.9H64.4V72.7H52V56.9Z" fill="white"/>
</svg>
