<svg width="100" height="100" viewBox="0 0 100 100" fill="none" xmlns="http://www.w3.org/2000/svg">
<path d="M96.6 83.3C87.7 78.7 82.7 74.8 77.2 68C73.8 63.8 71.3 59.6 69 54.5C76.4 50.4 79.7 48.2 87.7 42.2C89.3 42.3 90.4 42.4 90.7 42.4C91.8 42.4 92.7 41.9 92.7 41.3C92.7 40.5 91.7 39.7 87.3 37.1C86 36.4 84.1 35.3 81.6 33.8C80 37.4 78.9 39.2 74.3 45C71.7 48.4 70.9 49.4 68.1 52.3C65 44.7 63.3 38.2 62 28.6H94.3C95.1 28.6 95.6 28.3 95.6 27.9C95.6 27.8 95.4 27.4 95.2 27.1C91.2 23.3 89.9 22.2 85.6 18.6C82.9 21.9 82.1 22.9 79.6 26.4H63V10.3C66.3 9 67.3 8.5 67.3 7.7C67.3 7.2 66.9 6.8 66.2 6.6C65 6.09999 64.2 5.99999 54.5 4.9C54.8 8.1 54.9 9.29999 54.9 13.6V26.4H37.7C34.8 26.4 32.2 26.1 28.6 25.5L29.5 29.3C33.2 28.8 34.9 28.6 37 28.6H50.6C46.5 39.4 36 53.6 23.1 65.8L24.1 67.1C29.8 63.4 39.1 55.9 42.3 52.3V80.3C37.4 81.3 32 82.1 28.7 82.3C31 92.4 31.7 94.4 32.9 94.4C33.9 94.4 34.4 93.2 34.6 90.3C47.3 85.8 59.7 80.3 69.7 74.8L69.2 73.7C62.4 75.8 58.6 76.8 49.9 78.7V44.2C54.2 39 56 36.1 59.9 28.9C61.3 45 65.6 60.9 71.8 72.6C76.5 81.4 80.4 86.3 87.4 91.9C90.5 86.4 92.4 84.9 96.2 84.5L96.6 83.3ZM2.8 55.5C7.9 50.8 9.9 48.4 14.7 41.8V67.6C14.4 83.1 14.3 91.8 14.2 93.7C14.2 95.2 14.7 95.6 16.5 95.6C21.5 95.6 22.5 95.2 22.6 93.4V82.1C22.6 78.1 22.6 72.9 22.6 66.4V40.6C24.9 39.9 26.1 39.2 26.1 38.3C26.1 37.4 25.4 37.2 18.5 36.1C23.8 27.9 27.7 20.7 32.1 10.4C35.7 9.79999 37 9.29999 37 8.39999C37 7.3 34.9 6.6 23.7 4C22.2 11.5 20.6 16.6 17.2 25.1C12.1 37.6 7.7 45.8 1.7 54.6L2.8 55.5Z" fill="white"/>
</svg>
