<svg width="100" height="100" viewBox="0 0 100 100" fill="none" xmlns="http://www.w3.org/2000/svg">
<path d="M54.4 36.2C60 30.5 60.9 29.5 67.7 21.3C72.1 20.5 72.1 20.5 72.1 19.7C72.1 19.2 71.8 18.9 71.1 18.5C69.9 17.9 65 16 60.6 14.4C59.8 18.1 59.3 19.6 57.6 23.9C55.3 29.3 53.6 32.9 51.7 36.2H31.2C28.3 36.2 24.6 35.9 21.7 35.3L22.5 39C28.2 38.4 28.6 38.4 30.3 38.4H46.3V71.6H35.3V49.8C38 49.1 39.1 48.5 39.1 47.7C39.1 46.6 38.1 46.4 32.9 45.8C31.8 45.7 30 45.5 27.7 45.2C28 49.1 28.1 52.8 28.1 55.9V65.8C28.1 71.1 28 73.3 27.6 79.3C27.6 80.8 28.1 81.2 29.7 81.2C29.8 81.2 30 81.2 30.2 81.2C30.4 81.2 30.7 81.2 31.1 81.2C34.3 81.1 35.1 80.7 35.3 79V73.8H64.5V78.1C64.5 79.5 65 80 66.4 80C70.2 80 72.1 79.2 72.1 77.7C72.1 77.6 72.1 77.4 72.1 77.2C71.9 70.6 71.8 67.7 71.8 63.3C71.8 60.9 71.8 60.9 71.9 49.9C74.7 49.3 75.7 48.7 75.7 47.8C75.7 46.5 75.2 46.4 64.1 45.2C64.4 50.1 64.5 52.9 64.5 53.4V71.6H53.5V38.4H78C78.4 38.4 78.8 38.1 78.8 37.7C78.8 37.6 78.6 37.3 78.3 37C74.7 33.8 73.5 32.8 69.7 29.9C67.5 32.5 66.8 33.3 64.6 36.2H54.4ZM18.6 12.5H81.3V82.6C81.3 83.6 80.9 83.9 79.7 83.9C74.4 83.6 73.9 83.6 66.3 83V84.3C71.2 85.1 73.1 85.8 74.6 87.3C76 88.8 76.6 90.3 77.1 93.5C82.1 92.9 84.4 92.3 86.4 91.2C88.7 89.9 89.4 88.6 89.6 85.5C89.6 80.2 89.6 80.2 89.5 75.1C89.4 65.7 89.4 65.3 89.4 61.9V14.7C92.1 13.3 93 12.5 93 11.8C93 11.5 92.6 11 91.8 10.4C88.8 8.2 87.9 7.49999 84.8 5.19999C82.8 7.39999 82.2 8 80.3 10.3H19.5C16.5 8.7 13.3 6.99999 9.9 5.19999C10.4 14 10.5 21.1 10.5 72.1C10.5 80.8 10.4 84.2 10.1 93C10.1 94.4 10.7 94.9 12.6 94.9C12.6 94.9 12.8 94.9 13 94.9C13.3 94.9 13.6 94.9 13.9 94.9C17.9 94.8 18.7 94.4 18.8 92.7C18.6 75.4 18.6 73.9 18.6 70.7V12.5ZM30.3 16C33.6 20.4 35.6 24.2 37 28.2C38.9 33.9 38.9 34 40.2 34C42.4 34 45.1 30.6 45.1 27.9C45.1 26.3 44.2 24.4 42.8 23.1C40 20.6 35.2 17.4 31 15.1L30.3 16Z" fill="white"/>
</svg>
